<?xml version="1.0" encoding="utf-8"?>
<!-- Generator: Adobe Illustrator 25.2.3, SVG Export Plug-In . SVG Version: 6.00 Build 0)  -->
<svg version="1.1" id="图层_1" xmlns="http://www.w3.org/2000/svg" xmlns:xlink="http://www.w3.org/1999/xlink" x="0px" y="0px"
	 viewBox="0 0 18 18" style="enable-background:new 0 0 18 18;" xml:space="preserve">
<style type="text/css">
	.st0{fill:#B2E4B0;}
	.st1{fill:#5ABD41;}
	.st2{fill:#94D584;}
	.st3{fill:#E4F3DA;}
</style>
<g id="图层_2_1_">
	<g id="图层_1-2">
		<path class="st0" d="M9.6,1.9C13.4,2,16.1,5.1,16.1,9c0,2.1-1,4.2-2.6,5.5l0.2,0.5c1.8-1.4,2.9-3.6,2.9-6c0-4.2-2.9-7.4-7-7.6
			C9.5,1.3,9.5,1.9,9.6,1.9z M8.4,16.1C4.9,16,1.9,12.9,1.9,9c0-2,0.8-3.9,2.3-5.2L3.9,3.3C2.3,4.7,1.3,6.8,1.3,9
			c0,4.2,3.1,7.7,7,7.7C8.3,16.7,8.4,16.1,8.4,16.1z"/>
		<path class="st1" d="M9,17.4c-0.5,0-1-0.4-1-1c0-0.5,0.4-1,1-1c0.5,0,1,0.4,1,1C10,17,9.5,17.4,9,17.4z M9,16
			c-0.2,0-0.4,0.2-0.4,0.4c0,0.2,0.2,0.4,0.4,0.4c0.2,0,0.4-0.2,0.4-0.4C9.4,16.2,9.2,16,9,16C9,16,9,16,9,16L9,16z"/>
		<path class="st1" d="M9,2.5c-0.5,0-1-0.4-1-1s0.4-1,1-1c0.5,0,1,0.4,1,1C10,2.1,9.5,2.5,9,2.5z M9,1.1c-0.2,0-0.4,0.2-0.4,0.4
			C8.6,1.8,8.8,2,9,2c0.2,0,0.4-0.2,0.4-0.4C9.4,1.3,9.2,1.1,9,1.1C9,1.1,9,1.1,9,1.1L9,1.1z"/>
		<path class="st2" d="M3,9c0,3.4,2.7,6.1,6.1,6.1s6.1-2.7,6.1-6.1s-2.7-6.1-6.1-6.1S3,5.7,3,9z"/>
		<path class="st1" d="M11.2,4.5c0.8,0,1.6,0.1,2.4,0.3c-1.2-1.3-2.8-2-4.5-2C5.7,2.9,3,5.7,3,9c0,0.4,0,0.8,0.1,1.2
			C4.3,6.9,7.5,4.5,11.2,4.5z"/>
		<path class="st1" d="M11,3.2c1.6,1.1,2.7,2.8,2.7,4.6c0,3.4-3.5,6.1-7.9,6.1c-0.1,0-0.2,0-0.3,0c1.1,0.8,2.3,1.2,3.6,1.2
			c3.4,0,6.1-2.7,6.1-6.1C15.2,6.4,13.5,4,11,3.2z"/>
		<path class="st3" d="M11.1,9.2c0,0-0.2-0.1-0.4-0.2c-0.1,0-0.1-0.3-0.1-0.3s0.1,0.1,0.3,0.2c0.3,0,0.7,0.1,0.8,0.3
			c0.1,0.1,0.1,0.2,0.2,0.3s0.1,0.2,0.1,0.2s-0.2,0-0.3-0.2c-0.1-0.1-0.1-0.3-0.2-0.2c0,0,0,0.2-0.2,0.2c-0.2,0-0.2-0.2-0.3-0.2
			S11.1,9.2,11.1,9.2L11.1,9.2z M10.4,6.1L10.8,6L11,5.8L11,5.6l0.1-0.3l-0.1-0.2c0,0,0-0.3-0.1-0.4s-0.1-0.4-0.1-0.4l0-0.1
			l-0.2,0.1l0.1,0.4l0.1,0.4l0,0.7l-0.3,0.2l-0.2,0.3L10.4,6.1L10.4,6.1z M10.7,5.3l-0.1-0.1l-0.1,0l0,0.2l0.1,0L10.7,5.3L10.7,5.3z
			 M11.9,10.5c0,0,0-0.3-0.1-0.3s-0.2-0.3-0.2-0.3l-0.2-0.3c0,0,0,0.4,0,0.4c0,0.1-0.2,0.2-0.2,0.1c0,0-0.2-0.3-0.2-0.3
			s0.1-0.1,0-0.1c0,0,0,0,0,0c0,0-0.1,0-0.1,0l-0.3,0l0,0.1c0,0-0.2,0.2-0.3,0.2c-0.1,0-0.2,0.5-0.4,0.5c-0.1,0-0.3,0-0.3,0
			S9.2,11,9.3,11.1c0.1,0.1,0.1,0.3,0.1,0.5c0,0.2,0,0.2,0.3,0.1c0.3,0,0.5-0.4,0.7-0.3c0.3,0.1,0.4,0.3,0.4,0.3l0.2-0.2
			c0,0,0,0.2-0.1,0.2c0,0,0,0,0.1,0.1c0.1,0.1,0.4,0.3,0.8-0.2c0.4-0.4,0.3-0.7,0.3-0.7L11.9,10.5L11.9,10.5z M5.3,10.1
			c0-0.3-0.1-0.2-0.1-0.6c0-0.4,0.6-1.3,0.5-1.3c0,0-0.3,0.2-0.4,0.2s-0.5-0.9-0.5-1S4.7,6.7,4.7,6.7S4.9,7,5,7
			c0.1,0,0.1,0.4,0.2,0.6c0.1,0.2,0.3,0.5,0.5,0.5c0.2,0,0.6-0.9,0.6-0.9L6,7.1L5.7,7.2c0-0.1-0.1-0.2-0.2-0.3
			c-0.1-0.1-0.1-0.4,0-0.4S5.7,6.8,6,7c0.3,0.2,0.6,0,0.6,0s0.3,0.2,0.3,0.4c0,0.1,0.3,0.9,0.4,1c0,0.1,0.2-0.2,0.3-0.6
			C7.7,7.5,8,7.3,8.1,7.2c0.1-0.1,0.1,0.1,0.2,0.3c0.1,0.2,0.3,0.3,0.4,0.4c0.1,0.1,0,0.3,0.2,0.3s0.3-0.3,0.3-0.3L9,7.6
			c-0.1-0.3,0-0.3,0.2-0.4S9.6,7,9.7,6.7C9.9,6.5,9.6,6.2,9.5,6C9.4,5.8,9.6,5.8,9.7,5.8c0.1,0,0.2,0.6,0.2,0.6l0.2-0.1
			C10.1,6.1,10,6,10,5.9c-0.1-0.2,0.1-0.2,0.4-0.4c0.3-0.3,0.1-0.4,0.1-0.7s-0.3-0.3-0.3-0.3s-0.1,0.1,0-0.3
			c0.1-0.4,0.7-0.2,0.9-0.2c0.1,0,0.3-0.3,0.3-0.4C8.3,2.2,4.8,3.7,3.5,6.8C3.3,7.4,3.1,8,3.1,8.7c0.1,0,0.2,0.1,0.3,0.1
			c0.2,0,0.1,0.4,0.2,0.6c0,0.2,0.1,0.4,0.2,0.6c0.1,0.2,0,0.3-0.1,0.4c0,0.1,0.1,0.3,0.2,0.3c0.1,0-0.2,0.5,0.1,0.9s0.7,0,0.9-0.7
			C5,10.3,5.3,10.4,5.3,10.1L5.3,10.1z M9.2,8.8l0.1,0.2l0.3,0.1c0,0,0.1-0.4,0.2-0.5S9.7,8.3,9.6,8.3L9.2,8.8z M11.7,4.7
			C11.7,4.7,11.7,4.8,11.7,4.7C11.7,4.8,11.7,4.8,11.7,4.7L11.7,4.7z M9.9,9.6c-0.1,0-0.2-0.1-0.4-0.1C9,9.3,9.1,9.4,9,9.3
			C8.8,9.2,8.9,9.1,9,9c0-0.1-0.2-0.6-0.2-0.6L8.6,8.3l0,0.3L8.4,8.6l0.2,0.6c0,0,0.4,0.3,0.7,0.5C9.5,9.7,9.7,9.6,9.9,9.6z
			 M5.5,11.2c0,0,0.2-0.4,0.3-0.6c0-0.2,0-0.5,0-0.5s-0.3,0.2-0.3,0.3s-0.1,0.2-0.1,0.4C5.4,10.9,5.5,11.2,5.5,11.2z M11.6,3.6
			c-0.1,0.2-0.3,0.4-0.3,0.5c0,0.1,0.2,0.1,0.2,0.2c0,0.1,0.1,0.3,0.2,0.4c0-0.1,0-0.1,0-0.2c0.1-0.1,0.1-0.4,0-0.6
			c0-0.1,0-0.2,0.1-0.3C11.7,3.6,11.6,3.6,11.6,3.6L11.6,3.6z M10,9.5C10.1,9.5,10.1,9.5,10,9.5C10.1,9.5,10,9.5,10,9.5L10,9.5z
			 M10,9.6C9.9,9.6,10,9.5,10,9.6C10,9.5,9.9,9.6,10,9.6C10,9.6,10,9.6,10,9.6L10,9.6z"/>
	</g>
</g>
</svg>
