<svg width="32" height="32" viewBox="0 0 32 32" fill="none" xmlns="http://www.w3.org/2000/svg">
<path d="M27.9703 14.7149L29.75 13.6874L25.5285 6.37549L23.7488 7.40299C22.7597 7.97424 21.5231 7.26018 21.5231 6.11799V4.06299H13.0803V6.11799C13.0803 7.26018 11.8438 7.97424 10.8547 7.40299L9.07502 6.37549L4.85345 13.6874L6.63314 14.7149C7.6222 15.2861 7.6222 16.7139 6.63314 17.2849L4.85345 18.3124L9.07502 25.6242L10.8547 24.5967C11.8438 24.0255 13.0803 24.7395 13.0803 25.8817V27.9367H21.5231V25.8817C21.5231 24.7395 22.7597 24.0255 23.7488 24.5967L25.5285 25.6242L29.75 18.3124L27.9703 17.2849C26.9813 16.7136 26.9813 15.2861 27.9703 14.7149ZM17.3016 20.7811C14.661 20.7811 12.5203 18.6405 12.5203 15.9999C12.5203 13.3592 14.661 11.2186 17.3016 11.2186C19.9422 11.2186 22.0828 13.3592 22.0828 15.9999C22.0828 18.6405 19.9422 20.7811 17.3016 20.7811Z" fill="#9F9F9F"/>
<path d="M19.5447 28.5617H11.1019C10.7566 28.5617 10.4769 28.282 10.4769 27.9367V25.8817C10.4769 25.5711 10.3162 25.2933 10.0475 25.138C9.77874 24.9827 9.45749 24.9827 9.18874 25.138L7.40905 26.1655C7.26545 26.2483 7.09484 26.2708 6.93468 26.228C6.85539 26.2068 6.78107 26.1701 6.71597 26.1202C6.65087 26.0702 6.59627 26.0079 6.5553 25.9367L2.33374 18.6249C2.25089 18.4813 2.22842 18.3106 2.27124 18.1505C2.31405 17.9905 2.41905 17.8539 2.56249 17.7711L4.34218 16.7436C4.61093 16.5883 4.77155 16.3105 4.77155 15.9999C4.77155 15.6892 4.61093 15.4114 4.34218 15.2561L2.56249 14.2286C2.41895 14.1458 2.31419 14.0093 2.27124 13.8492C2.22846 13.6891 2.25093 13.5185 2.33374 13.3749L6.5553 6.06299C6.63811 5.91955 6.77468 5.81455 6.93468 5.77174C7.09468 5.72893 7.2653 5.75143 7.40905 5.83424L9.18874 6.86174C9.45749 7.01705 9.77874 7.01705 10.0475 6.86174C10.3162 6.70643 10.4769 6.42861 10.4769 6.11799V4.06299C10.4769 3.71768 10.7566 3.43799 11.1019 3.43799H19.5447C19.89 3.43799 20.1697 3.71768 20.1697 4.06299V6.11799C20.1697 6.42861 20.3303 6.70643 20.5991 6.86174C20.8678 7.01705 21.1891 7.01705 21.4578 6.86174L23.2375 5.83424C23.3811 5.75139 23.5517 5.72891 23.7119 5.77174C23.8719 5.81455 24.0084 5.91924 24.0912 6.06299L28.3128 13.3749C28.3956 13.5185 28.4181 13.6891 28.3753 13.8492C28.3541 13.9285 28.3175 14.0028 28.2675 14.0679C28.2175 14.133 28.1552 14.1876 28.0841 14.2286L26.3044 15.2561C26.0356 15.4114 25.875 15.6892 25.875 15.9999C25.875 16.3105 26.0356 16.5883 26.3044 16.7436L28.0841 17.7711C28.2275 17.8539 28.3325 17.9905 28.3753 18.1505C28.4181 18.3105 28.3956 18.4811 28.3128 18.6249L24.0912 25.9367C24.0084 26.0803 23.8719 26.185 23.7119 26.228C23.5519 26.2708 23.3812 26.2483 23.2375 26.1655L21.4578 25.138C21.1891 24.9827 20.8678 24.9827 20.5991 25.138C20.3303 25.2933 20.1697 25.5714 20.1697 25.8817V27.9367C20.1697 28.2817 19.89 28.5617 19.5447 28.5617ZM11.7269 27.3117H18.9197V25.8817C18.9197 25.1192 19.3137 24.4367 19.9741 24.0555C20.6344 23.6742 21.4225 23.6742 22.0828 24.0555L23.3212 24.7705L26.9178 18.5411L25.6794 17.8261C25.0191 17.4449 24.625 16.7624 24.625 15.9999C24.625 15.2374 25.0191 14.5549 25.6794 14.1736L26.9178 13.4586L23.3212 7.22924L22.0828 7.94424C21.4225 8.32549 20.6344 8.32549 19.9741 7.94424C19.3137 7.56299 18.9197 6.88018 18.9197 6.11799V4.68799H11.7269V6.11799C11.7269 6.88049 11.3328 7.56299 10.6725 7.94424C10.0122 8.32549 9.22405 8.32549 8.56374 7.94424L7.3253 7.22924L3.72874 13.4586L4.96718 14.1736C5.62749 14.5549 6.02155 15.2377 6.02155 15.9999C6.02155 16.7624 5.62749 17.4449 4.96718 17.8261L3.72874 18.5411L7.3253 24.7705L8.56374 24.0555C9.22405 23.6742 10.0122 23.6742 10.6725 24.0555C11.3328 24.4367 11.7269 25.1195 11.7269 25.8817V27.3117ZM15.3234 21.4061C12.3425 21.4061 9.91718 18.9808 9.91718 15.9999C9.91718 13.0189 12.3425 10.5936 15.3234 10.5936C18.3044 10.5936 20.7297 13.0189 20.7297 15.9999C20.7294 18.9808 18.3044 21.4061 15.3234 21.4061ZM15.3234 11.8436C13.0316 11.8436 11.1672 13.708 11.1672 15.9999C11.1672 18.2914 13.0316 20.1561 15.3234 20.1561C17.6153 20.1561 19.4797 18.2917 19.4797 15.9999C19.4794 13.708 17.615 11.8436 15.3234 11.8436Z" fill="#FAFAFA"/>
</svg>
