<svg id="图层_1" data-name="图层 1" xmlns="http://www.w3.org/2000/svg" viewBox="0 0 32 32"><defs><style>.cls-1{fill:#b2e4af;}.cls-2{fill:#5abd41;}.cls-3{fill:#89d585;}</style></defs><title>icon</title><polygon class="cls-1" points="20.62 28.45 20.62 5.58 20.62 5.58 20.62 5.58 8.39 5.58 8.37 5.58 8.37 5.59 8.37 5.59 8.37 28.45 20.62 28.45 20.62 28.45 20.62 28.45 20.62 28.45"/><polygon class="cls-2" points="23.62 26.45 23.62 3.58 23.62 3.58 23.62 3.58 20.6 5.58 20.59 5.58 20.59 5.59 20.59 5.59 20.59 28.45 23.62 26.45 23.62 26.45 23.62 26.45 23.62 26.45"/><polygon class="cls-3" points="20.61 5.58 8.37 5.58 10.9 3.55 23.63 3.57 20.61 5.58"/><rect class="cls-2" x="6.89" y="11.71" width="7" height="0.8" transform="translate(-1.72 22.51) rotate(-90)"/><rect class="cls-2" x="9.99" y="8.61" width="9" height="0.8"/><rect class="cls-2" x="9.99" y="24.57" width="9" height="0.8"/><rect class="cls-2" x="8.94" y="11.71" width="7" height="0.8" transform="translate(0.33 24.56) rotate(-90)"/><rect class="cls-2" x="6.12" y="16.59" width="16.76" height="0.8" transform="translate(-2.5 31.49) rotate(-90)"/><rect class="cls-2" x="13.04" y="11.71" width="7" height="0.8" transform="translate(4.43 28.66) rotate(-90)"/><rect class="cls-2" x="15.09" y="11.71" width="7" height="0.8" transform="translate(6.48 30.71) rotate(-90)"/><rect class="cls-2" x="6.89" y="21.47" width="7" height="0.8" transform="translate(-11.48 32.27) rotate(-90)"/><rect class="cls-2" x="8.94" y="21.47" width="7" height="0.8" transform="translate(-9.43 34.32) rotate(-90)"/><rect class="cls-2" x="13.04" y="21.47" width="7" height="0.8" transform="translate(-5.33 38.42) rotate(-90)"/><rect class="cls-2" x="15.09" y="21.47" width="7" height="0.8" transform="translate(-3.28 40.47) rotate(-90)"/></svg>